<?xml version="1.0" encoding="utf-8"?>
<!-- Generator: Adobe Illustrator 22.0.0, SVG Export Plug-In . SVG Version: 6.00 Build 0)  -->
<svg version="1.1" id="Layer_1" xmlns="http://www.w3.org/2000/svg" xmlns:xlink="http://www.w3.org/1999/xlink" x="0px" y="0px"
	 viewBox="0 0 512 512" style="enable-background:new 0 0 512 512;" xml:space="preserve">
<style type="text/css">
	.st0{fill:#333333;}
</style>
<g>
	<g>
		<path class="st0" d="M505.6,396.5L271.7,225.7v-35c0-8.7-7-15.7-15.7-15.7c-15.5,0-28-12.7-28-28.2s12.6-28.2,28-28.2
			s28,12.7,28,28.2c0,8.7,7,15.7,15.7,15.7s15.7-7,15.7-15.7c0-32.8-26.6-59.6-59.4-59.6c-32.7,0-59.4,26.7-59.4,59.6
			c0,27.4,18.5,50.6,43.7,57.5v21.4L6.4,396.5c-12.2,8.9-5.9,28.3,9.2,28.3h480.6C511.4,424.8,517.8,405.4,505.6,396.5z M63.7,393.5
			L63.7,393.5L256,253l192.3,140.4L63.7,393.5L63.7,393.5z"/>
	</g>
</g>
</svg>
